<mxfile host="app.diagrams.net" modified="2022-01-10T01:12:11.767Z" agent="5.0 (X11; Linux x86_64) AppleWebKit/537.36 (KHTML, like Gecko) Chrome/89.0.4389.82 Safari/537.36" etag="gNHiLyaihtOZ4u9BNONn" version="16.2.4" type="github">
  <diagram id="7MMlL8TGog8yBvPdSS11" name="Page-1">
    <mxGraphModel dx="2031" dy="1086" grid="1" gridSize="10" guides="1" tooltips="1" connect="1" arrows="1" fold="1" page="1" pageScale="1" pageWidth="827" pageHeight="1169" math="0" shadow="0">
      <root>
        <mxCell id="0" />
        <mxCell id="1" parent="0" />
        <mxCell id="2IhFbxCM1XliAGJ_DBka-1" value="data" style="rounded=0;whiteSpace=wrap;html=1;" vertex="1" parent="1">
          <mxGeometry x="140" y="360" width="120" height="60" as="geometry" />
        </mxCell>
        <mxCell id="2IhFbxCM1XliAGJ_DBka-14" style="edgeStyle=orthogonalEdgeStyle;rounded=0;orthogonalLoop=1;jettySize=auto;html=1;entryX=0;entryY=0.5;entryDx=0;entryDy=0;" edge="1" parent="1" source="2IhFbxCM1XliAGJ_DBka-2" target="2IhFbxCM1XliAGJ_DBka-3">
          <mxGeometry relative="1" as="geometry" />
        </mxCell>
        <mxCell id="2IhFbxCM1XliAGJ_DBka-2" value="next" style="rounded=0;whiteSpace=wrap;html=1;" vertex="1" parent="1">
          <mxGeometry x="260" y="360" width="40" height="60" as="geometry" />
        </mxCell>
        <mxCell id="2IhFbxCM1XliAGJ_DBka-3" value="data" style="rounded=0;whiteSpace=wrap;html=1;" vertex="1" parent="1">
          <mxGeometry x="370" y="360" width="120" height="60" as="geometry" />
        </mxCell>
        <mxCell id="2IhFbxCM1XliAGJ_DBka-15" style="edgeStyle=orthogonalEdgeStyle;rounded=0;orthogonalLoop=1;jettySize=auto;html=1;entryX=0;entryY=0.5;entryDx=0;entryDy=0;" edge="1" parent="1" source="2IhFbxCM1XliAGJ_DBka-4" target="2IhFbxCM1XliAGJ_DBka-11">
          <mxGeometry relative="1" as="geometry" />
        </mxCell>
        <mxCell id="2IhFbxCM1XliAGJ_DBka-4" value="next" style="rounded=0;whiteSpace=wrap;html=1;" vertex="1" parent="1">
          <mxGeometry x="490" y="360" width="40" height="60" as="geometry" />
        </mxCell>
        <mxCell id="2IhFbxCM1XliAGJ_DBka-5" value="data" style="rounded=0;whiteSpace=wrap;html=1;" vertex="1" parent="1">
          <mxGeometry x="1450" y="360" width="120" height="60" as="geometry" />
        </mxCell>
        <mxCell id="2IhFbxCM1XliAGJ_DBka-6" value="next" style="rounded=0;whiteSpace=wrap;html=1;" vertex="1" parent="1">
          <mxGeometry x="1570" y="360" width="40" height="60" as="geometry" />
        </mxCell>
        <mxCell id="2IhFbxCM1XliAGJ_DBka-7" value="data" style="rounded=0;whiteSpace=wrap;html=1;" vertex="1" parent="1">
          <mxGeometry x="910" y="360" width="120" height="60" as="geometry" />
        </mxCell>
        <mxCell id="2IhFbxCM1XliAGJ_DBka-17" style="edgeStyle=orthogonalEdgeStyle;rounded=0;orthogonalLoop=1;jettySize=auto;html=1;entryX=0;entryY=0.5;entryDx=0;entryDy=0;" edge="1" parent="1" source="2IhFbxCM1XliAGJ_DBka-8" target="2IhFbxCM1XliAGJ_DBka-9">
          <mxGeometry relative="1" as="geometry" />
        </mxCell>
        <mxCell id="2IhFbxCM1XliAGJ_DBka-8" value="next" style="rounded=0;whiteSpace=wrap;html=1;" vertex="1" parent="1">
          <mxGeometry x="1030" y="360" width="40" height="60" as="geometry" />
        </mxCell>
        <mxCell id="2IhFbxCM1XliAGJ_DBka-9" value="data" style="rounded=0;whiteSpace=wrap;html=1;" vertex="1" parent="1">
          <mxGeometry x="1190" y="360" width="120" height="60" as="geometry" />
        </mxCell>
        <mxCell id="2IhFbxCM1XliAGJ_DBka-18" style="edgeStyle=orthogonalEdgeStyle;rounded=0;orthogonalLoop=1;jettySize=auto;html=1;" edge="1" parent="1" source="2IhFbxCM1XliAGJ_DBka-10" target="2IhFbxCM1XliAGJ_DBka-5">
          <mxGeometry relative="1" as="geometry">
            <mxPoint x="1060" y="400" as="targetPoint" />
          </mxGeometry>
        </mxCell>
        <mxCell id="2IhFbxCM1XliAGJ_DBka-10" value="next" style="rounded=0;whiteSpace=wrap;html=1;" vertex="1" parent="1">
          <mxGeometry x="1310" y="360" width="40" height="60" as="geometry" />
        </mxCell>
        <mxCell id="2IhFbxCM1XliAGJ_DBka-11" value="data" style="rounded=0;whiteSpace=wrap;html=1;" vertex="1" parent="1">
          <mxGeometry x="640" y="360" width="120" height="60" as="geometry" />
        </mxCell>
        <mxCell id="2IhFbxCM1XliAGJ_DBka-16" style="edgeStyle=orthogonalEdgeStyle;rounded=0;orthogonalLoop=1;jettySize=auto;html=1;entryX=0;entryY=0.5;entryDx=0;entryDy=0;" edge="1" parent="1" source="2IhFbxCM1XliAGJ_DBka-12" target="2IhFbxCM1XliAGJ_DBka-7">
          <mxGeometry relative="1" as="geometry" />
        </mxCell>
        <mxCell id="2IhFbxCM1XliAGJ_DBka-12" value="next" style="rounded=0;whiteSpace=wrap;html=1;" vertex="1" parent="1">
          <mxGeometry x="760" y="360" width="40" height="60" as="geometry" />
        </mxCell>
        <mxCell id="2IhFbxCM1XliAGJ_DBka-21" value="" style="edgeStyle=orthogonalEdgeStyle;rounded=0;orthogonalLoop=1;jettySize=auto;html=1;" edge="1" parent="1" source="2IhFbxCM1XliAGJ_DBka-20" target="2IhFbxCM1XliAGJ_DBka-1">
          <mxGeometry relative="1" as="geometry" />
        </mxCell>
        <mxCell id="2IhFbxCM1XliAGJ_DBka-20" value="head" style="rounded=0;whiteSpace=wrap;html=1;" vertex="1" parent="1">
          <mxGeometry x="30" y="360" width="40" height="60" as="geometry" />
        </mxCell>
        <mxCell id="2IhFbxCM1XliAGJ_DBka-25" value="" style="edgeStyle=orthogonalEdgeStyle;rounded=0;orthogonalLoop=1;jettySize=auto;html=1;" edge="1" parent="1" source="2IhFbxCM1XliAGJ_DBka-24" target="2IhFbxCM1XliAGJ_DBka-3">
          <mxGeometry relative="1" as="geometry" />
        </mxCell>
        <mxCell id="2IhFbxCM1XliAGJ_DBka-24" value="second_list_head" style="rounded=0;whiteSpace=wrap;html=1;" vertex="1" parent="1">
          <mxGeometry x="370" y="230" width="120" height="60" as="geometry" />
        </mxCell>
        <mxCell id="2IhFbxCM1XliAGJ_DBka-49" value="data" style="rounded=0;whiteSpace=wrap;html=1;" vertex="1" parent="1">
          <mxGeometry x="130" y="700" width="120" height="60" as="geometry" />
        </mxCell>
        <mxCell id="2IhFbxCM1XliAGJ_DBka-50" value="next" style="rounded=0;whiteSpace=wrap;html=1;" vertex="1" parent="1">
          <mxGeometry x="250" y="700" width="40" height="60" as="geometry" />
        </mxCell>
        <mxCell id="2IhFbxCM1XliAGJ_DBka-51" value="data" style="rounded=0;whiteSpace=wrap;html=1;" vertex="1" parent="1">
          <mxGeometry x="360" y="700" width="120" height="60" as="geometry" />
        </mxCell>
        <mxCell id="2IhFbxCM1XliAGJ_DBka-52" style="edgeStyle=orthogonalEdgeStyle;rounded=0;orthogonalLoop=1;jettySize=auto;html=1;entryX=0.5;entryY=1;entryDx=0;entryDy=0;" edge="1" parent="1" source="2IhFbxCM1XliAGJ_DBka-53" target="2IhFbxCM1XliAGJ_DBka-49">
          <mxGeometry relative="1" as="geometry">
            <Array as="points">
              <mxPoint x="500" y="870" />
              <mxPoint x="190" y="870" />
            </Array>
          </mxGeometry>
        </mxCell>
        <mxCell id="2IhFbxCM1XliAGJ_DBka-53" value="next" style="rounded=0;whiteSpace=wrap;html=1;" vertex="1" parent="1">
          <mxGeometry x="480" y="700" width="40" height="60" as="geometry" />
        </mxCell>
        <mxCell id="2IhFbxCM1XliAGJ_DBka-54" value="data" style="rounded=0;whiteSpace=wrap;html=1;" vertex="1" parent="1">
          <mxGeometry x="1440" y="700" width="120" height="60" as="geometry" />
        </mxCell>
        <mxCell id="2IhFbxCM1XliAGJ_DBka-55" value="next" style="rounded=0;whiteSpace=wrap;html=1;" vertex="1" parent="1">
          <mxGeometry x="1560" y="700" width="40" height="60" as="geometry" />
        </mxCell>
        <mxCell id="2IhFbxCM1XliAGJ_DBka-56" value="data" style="rounded=0;whiteSpace=wrap;html=1;" vertex="1" parent="1">
          <mxGeometry x="900" y="700" width="120" height="60" as="geometry" />
        </mxCell>
        <mxCell id="2IhFbxCM1XliAGJ_DBka-57" style="edgeStyle=orthogonalEdgeStyle;rounded=0;orthogonalLoop=1;jettySize=auto;html=1;entryX=0;entryY=0.5;entryDx=0;entryDy=0;" edge="1" parent="1" source="2IhFbxCM1XliAGJ_DBka-58" target="2IhFbxCM1XliAGJ_DBka-59">
          <mxGeometry relative="1" as="geometry" />
        </mxCell>
        <mxCell id="2IhFbxCM1XliAGJ_DBka-58" value="next" style="rounded=0;whiteSpace=wrap;html=1;" vertex="1" parent="1">
          <mxGeometry x="1020" y="700" width="40" height="60" as="geometry" />
        </mxCell>
        <mxCell id="2IhFbxCM1XliAGJ_DBka-59" value="data" style="rounded=0;whiteSpace=wrap;html=1;" vertex="1" parent="1">
          <mxGeometry x="1180" y="700" width="120" height="60" as="geometry" />
        </mxCell>
        <mxCell id="2IhFbxCM1XliAGJ_DBka-60" style="edgeStyle=orthogonalEdgeStyle;rounded=0;orthogonalLoop=1;jettySize=auto;html=1;" edge="1" parent="1" source="2IhFbxCM1XliAGJ_DBka-61" target="2IhFbxCM1XliAGJ_DBka-54">
          <mxGeometry relative="1" as="geometry">
            <mxPoint x="1050" y="740" as="targetPoint" />
          </mxGeometry>
        </mxCell>
        <mxCell id="2IhFbxCM1XliAGJ_DBka-61" value="next" style="rounded=0;whiteSpace=wrap;html=1;" vertex="1" parent="1">
          <mxGeometry x="1300" y="700" width="40" height="60" as="geometry" />
        </mxCell>
        <mxCell id="2IhFbxCM1XliAGJ_DBka-62" value="data" style="rounded=0;whiteSpace=wrap;html=1;" vertex="1" parent="1">
          <mxGeometry x="630" y="700" width="120" height="60" as="geometry" />
        </mxCell>
        <mxCell id="2IhFbxCM1XliAGJ_DBka-63" style="edgeStyle=orthogonalEdgeStyle;rounded=0;orthogonalLoop=1;jettySize=auto;html=1;entryX=0;entryY=0.5;entryDx=0;entryDy=0;" edge="1" parent="1" source="2IhFbxCM1XliAGJ_DBka-64" target="2IhFbxCM1XliAGJ_DBka-56">
          <mxGeometry relative="1" as="geometry" />
        </mxCell>
        <mxCell id="2IhFbxCM1XliAGJ_DBka-64" value="next" style="rounded=0;whiteSpace=wrap;html=1;" vertex="1" parent="1">
          <mxGeometry x="750" y="700" width="40" height="60" as="geometry" />
        </mxCell>
        <mxCell id="2IhFbxCM1XliAGJ_DBka-67" value="" style="edgeStyle=orthogonalEdgeStyle;rounded=0;orthogonalLoop=1;jettySize=auto;html=1;entryX=0.5;entryY=0;entryDx=0;entryDy=0;" edge="1" parent="1" source="2IhFbxCM1XliAGJ_DBka-68" target="2IhFbxCM1XliAGJ_DBka-51">
          <mxGeometry relative="1" as="geometry" />
        </mxCell>
        <mxCell id="2IhFbxCM1XliAGJ_DBka-68" value="head" style="rounded=0;whiteSpace=wrap;html=1;" vertex="1" parent="1">
          <mxGeometry x="390" y="580" width="60" height="60" as="geometry" />
        </mxCell>
        <mxCell id="2IhFbxCM1XliAGJ_DBka-69" value="" style="edgeStyle=orthogonalEdgeStyle;rounded=0;orthogonalLoop=1;jettySize=auto;html=1;" edge="1" parent="1" source="2IhFbxCM1XliAGJ_DBka-70" target="2IhFbxCM1XliAGJ_DBka-62">
          <mxGeometry relative="1" as="geometry" />
        </mxCell>
        <mxCell id="2IhFbxCM1XliAGJ_DBka-70" value="second_list_head" style="rounded=0;whiteSpace=wrap;html=1;" vertex="1" parent="1">
          <mxGeometry x="630" y="580" width="120" height="60" as="geometry" />
        </mxCell>
        <mxCell id="2IhFbxCM1XliAGJ_DBka-71" value="1" style="whiteSpace=wrap;html=1;shape=mxgraph.basic.cloud_callout" vertex="1" parent="1">
          <mxGeometry x="450" y="520" width="90" height="60" as="geometry" />
        </mxCell>
        <mxCell id="2IhFbxCM1XliAGJ_DBka-72" value="2" style="whiteSpace=wrap;html=1;shape=mxgraph.basic.cloud_callout" vertex="1" parent="1">
          <mxGeometry x="750" y="520" width="90" height="60" as="geometry" />
        </mxCell>
        <mxCell id="2IhFbxCM1XliAGJ_DBka-73" value="3" style="whiteSpace=wrap;html=1;shape=mxgraph.basic.cloud_callout" vertex="1" parent="1">
          <mxGeometry x="360" y="790" width="104" height="80" as="geometry" />
        </mxCell>
        <mxCell id="2IhFbxCM1XliAGJ_DBka-76" value="data" style="rounded=0;whiteSpace=wrap;html=1;" vertex="1" parent="1">
          <mxGeometry x="110" y="1090" width="120" height="60" as="geometry" />
        </mxCell>
        <mxCell id="2IhFbxCM1XliAGJ_DBka-77" value="next" style="rounded=0;whiteSpace=wrap;html=1;" vertex="1" parent="1">
          <mxGeometry x="230" y="1090" width="40" height="60" as="geometry" />
        </mxCell>
        <mxCell id="2IhFbxCM1XliAGJ_DBka-78" value="data" style="rounded=0;whiteSpace=wrap;html=1;" vertex="1" parent="1">
          <mxGeometry x="340" y="1090" width="120" height="60" as="geometry" />
        </mxCell>
        <mxCell id="2IhFbxCM1XliAGJ_DBka-79" style="edgeStyle=orthogonalEdgeStyle;rounded=0;orthogonalLoop=1;jettySize=auto;html=1;entryX=0.5;entryY=1;entryDx=0;entryDy=0;" edge="1" parent="1" source="2IhFbxCM1XliAGJ_DBka-80" target="2IhFbxCM1XliAGJ_DBka-76">
          <mxGeometry relative="1" as="geometry">
            <Array as="points">
              <mxPoint x="480" y="1260" />
              <mxPoint x="170" y="1260" />
            </Array>
          </mxGeometry>
        </mxCell>
        <mxCell id="2IhFbxCM1XliAGJ_DBka-80" value="next" style="rounded=0;whiteSpace=wrap;html=1;" vertex="1" parent="1">
          <mxGeometry x="460" y="1090" width="40" height="60" as="geometry" />
        </mxCell>
        <mxCell id="2IhFbxCM1XliAGJ_DBka-81" value="data" style="rounded=0;whiteSpace=wrap;html=1;" vertex="1" parent="1">
          <mxGeometry x="1420" y="1090" width="120" height="60" as="geometry" />
        </mxCell>
        <mxCell id="2IhFbxCM1XliAGJ_DBka-82" value="next" style="rounded=0;whiteSpace=wrap;html=1;" vertex="1" parent="1">
          <mxGeometry x="1540" y="1090" width="40" height="60" as="geometry" />
        </mxCell>
        <mxCell id="2IhFbxCM1XliAGJ_DBka-83" value="data" style="rounded=0;whiteSpace=wrap;html=1;" vertex="1" parent="1">
          <mxGeometry x="880" y="1090" width="120" height="60" as="geometry" />
        </mxCell>
        <mxCell id="2IhFbxCM1XliAGJ_DBka-84" style="edgeStyle=orthogonalEdgeStyle;rounded=0;orthogonalLoop=1;jettySize=auto;html=1;entryX=0;entryY=0.5;entryDx=0;entryDy=0;" edge="1" parent="1" source="2IhFbxCM1XliAGJ_DBka-85" target="2IhFbxCM1XliAGJ_DBka-86">
          <mxGeometry relative="1" as="geometry" />
        </mxCell>
        <mxCell id="2IhFbxCM1XliAGJ_DBka-85" value="next" style="rounded=0;whiteSpace=wrap;html=1;" vertex="1" parent="1">
          <mxGeometry x="1000" y="1090" width="40" height="60" as="geometry" />
        </mxCell>
        <mxCell id="2IhFbxCM1XliAGJ_DBka-86" value="data" style="rounded=0;whiteSpace=wrap;html=1;" vertex="1" parent="1">
          <mxGeometry x="1160" y="1090" width="120" height="60" as="geometry" />
        </mxCell>
        <mxCell id="2IhFbxCM1XliAGJ_DBka-87" style="edgeStyle=orthogonalEdgeStyle;rounded=0;orthogonalLoop=1;jettySize=auto;html=1;" edge="1" parent="1" source="2IhFbxCM1XliAGJ_DBka-88" target="2IhFbxCM1XliAGJ_DBka-81">
          <mxGeometry relative="1" as="geometry">
            <mxPoint x="1030" y="1130" as="targetPoint" />
          </mxGeometry>
        </mxCell>
        <mxCell id="2IhFbxCM1XliAGJ_DBka-88" value="next" style="rounded=0;whiteSpace=wrap;html=1;" vertex="1" parent="1">
          <mxGeometry x="1280" y="1090" width="40" height="60" as="geometry" />
        </mxCell>
        <mxCell id="2IhFbxCM1XliAGJ_DBka-89" value="data" style="rounded=0;whiteSpace=wrap;html=1;" vertex="1" parent="1">
          <mxGeometry x="610" y="1090" width="120" height="60" as="geometry" />
        </mxCell>
        <mxCell id="2IhFbxCM1XliAGJ_DBka-100" style="edgeStyle=orthogonalEdgeStyle;rounded=0;orthogonalLoop=1;jettySize=auto;html=1;entryX=0.5;entryY=1;entryDx=0;entryDy=0;" edge="1" parent="1" source="2IhFbxCM1XliAGJ_DBka-91" target="2IhFbxCM1XliAGJ_DBka-78">
          <mxGeometry relative="1" as="geometry">
            <Array as="points">
              <mxPoint x="750" y="1300" />
              <mxPoint x="400" y="1300" />
            </Array>
          </mxGeometry>
        </mxCell>
        <mxCell id="2IhFbxCM1XliAGJ_DBka-91" value="next" style="rounded=0;whiteSpace=wrap;html=1;" vertex="1" parent="1">
          <mxGeometry x="730" y="1090" width="40" height="60" as="geometry" />
        </mxCell>
        <mxCell id="2IhFbxCM1XliAGJ_DBka-99" value="" style="edgeStyle=orthogonalEdgeStyle;rounded=0;orthogonalLoop=1;jettySize=auto;html=1;" edge="1" parent="1" source="2IhFbxCM1XliAGJ_DBka-93" target="2IhFbxCM1XliAGJ_DBka-89">
          <mxGeometry relative="1" as="geometry" />
        </mxCell>
        <mxCell id="2IhFbxCM1XliAGJ_DBka-93" value="head" style="rounded=0;whiteSpace=wrap;html=1;" vertex="1" parent="1">
          <mxGeometry x="640" y="940" width="60" height="60" as="geometry" />
        </mxCell>
        <mxCell id="2IhFbxCM1XliAGJ_DBka-94" value="" style="edgeStyle=orthogonalEdgeStyle;rounded=0;orthogonalLoop=1;jettySize=auto;html=1;" edge="1" parent="1" source="2IhFbxCM1XliAGJ_DBka-95" target="2IhFbxCM1XliAGJ_DBka-83">
          <mxGeometry relative="1" as="geometry">
            <mxPoint x="940" y="1080" as="targetPoint" />
          </mxGeometry>
        </mxCell>
        <mxCell id="2IhFbxCM1XliAGJ_DBka-95" value="second_list_head" style="rounded=0;whiteSpace=wrap;html=1;" vertex="1" parent="1">
          <mxGeometry x="880" y="940" width="120" height="60" as="geometry" />
        </mxCell>
        <mxCell id="2IhFbxCM1XliAGJ_DBka-96" value="1" style="whiteSpace=wrap;html=1;shape=mxgraph.basic.cloud_callout" vertex="1" parent="1">
          <mxGeometry x="700" y="880" width="90" height="60" as="geometry" />
        </mxCell>
        <mxCell id="2IhFbxCM1XliAGJ_DBka-97" value="2" style="whiteSpace=wrap;html=1;shape=mxgraph.basic.cloud_callout" vertex="1" parent="1">
          <mxGeometry x="1000" y="880" width="90" height="60" as="geometry" />
        </mxCell>
        <mxCell id="2IhFbxCM1XliAGJ_DBka-98" value="3" style="whiteSpace=wrap;html=1;shape=mxgraph.basic.cloud_callout" vertex="1" parent="1">
          <mxGeometry x="610" y="1220" width="104" height="80" as="geometry" />
        </mxCell>
      </root>
    </mxGraphModel>
  </diagram>
</mxfile>
